<svg width="24" height="24" xmlns="http://www.w3.org/2000/svg">

 <g>
  <title>background</title>
  <rect fill="none" id="canvas_background" height="402" width="582" y="-1" x="-1"/>
 </g>
 <g>
  <title>Layer 1</title>
  <path fill="#ffffff" id="svg_1" d="m8,6c-1.104,0 -2,0.896 -2,2l0,8c0,1.104 0.896,2 2,2s2,-0.896 2,-2l0,-8c0,-1.104 -0.896,-2 -2,-2z"/>
  <path fill="#ffffff" id="svg_2" d="m15,6c-1.104,0 -2,0.896 -2,2l0,8c0,1.104 0.896,2 2,2s2,-0.896 2,-2l0,-8c0,-1.104 -0.896,-2 -2,-2z"/>
 </g>
</svg>